<?xml version="1.0" standalone="no"?>
<!DOCTYPE svg PUBLIC "-//W3C//DTD SVG 20010904//EN"
 "http://www.w3.org/TR/2001/REC-SVG-20010904/DTD/svg10.dtd">
<svg version="1.0" xmlns="http://www.w3.org/2000/svg"
 width="500.000000pt" height="500.000000pt" viewBox="0 0 500.000000 500.000000"
 preserveAspectRatio="xMidYMid meet">
<metadata>
Created by potrace 1.11, written by Peter Selinger 2001-2013
</metadata>
<g transform="translate(0.000000,500.000000) scale(0.100000,-0.100000)"
fill="#000000" stroke="none">
<path d="M2185 4524 c-247 -22 -510 -94 -700 -191 -94 -48 -124 -72 -230 -178
-79 -78 -123 -138 -245 -325 -32 -50 -139 -277 -164 -350 -76 -222 -134 -447
-165 -640 -30 -185 -99 -484 -157 -680 -91 -305 -252 -754 -287 -797 -17 -22
29 -15 86 12 59 28 148 93 213 155 55 52 179 200 230 274 22 30 43 55 48 56 5
0 6 -44 2 -104 -12 -192 -107 -429 -300 -751 -82 -136 -199 -310 -216 -320
-23 -14 -7 -25 35 -25 88 0 242 89 373 214 84 82 156 174 233 298 29 49 56 88
59 88 3 0 18 -26 34 -58 32 -65 111 -201 165 -282 57 -86 242 -332 247 -327 2
2 -3 39 -12 82 -12 59 -15 114 -12 219 6 175 9 183 51 143 30 -28 112 -93 161
-127 11 -8 48 -35 81 -60 110 -84 344 -232 387 -245 12 -4 73 -31 133 -61 185
-89 237 -105 298 -94 73 14 112 27 192 65 39 18 102 47 140 65 39 17 81 38 95
46 14 8 41 23 60 32 19 9 37 20 40 23 3 3 59 43 125 87 229 156 326 231 420
326 103 103 163 190 202 291 26 65 35 115 53 270 20 181 54 452 69 560 14 103
23 -404 12 -685 -15 -376 -17 -523 -8 -498 4 11 19 66 33 122 14 55 35 127 46
160 19 53 23 57 34 40 69 -101 119 -145 215 -189 106 -47 289 -91 289 -68 0 4
-12 20 -27 35 -17 17 -22 28 -13 28 8 0 2 12 -16 31 l-29 32 30 -19 c35 -23
31 -15 -32 69 -43 56 -46 71 -7 42 36 -28 36 -15 0 28 -159 183 -216 267 -256
377 -42 115 -44 140 -16 274 14 65 27 120 29 122 1 2 17 -24 34 -57 28 -53 32
-57 39 -37 8 28 58 103 92 141 14 15 54 44 89 65 34 20 63 42 63 47 0 6 -17
24 -37 40 -55 44 -177 135 -185 137 -4 2 12 41 36 88 24 47 52 119 61 160 29
120 7 109 254 130 63 5 116 12 119 14 11 11 -62 146 -114 211 -9 11 -27 36
-41 56 l-24 37 -60 -19 c-34 -11 -66 -19 -73 -19 -9 0 -15 23 -19 68 -11 120
-113 423 -199 589 -145 282 -371 529 -583 636 -105 52 -198 71 -355 72 -132 0
-153 -2 -233 -28 l-87 -28 -29 20 c-45 32 -77 42 -211 64 -118 19 -448 31
-565 21z m1389 -2181 c-8 -83 -56 -193 -107 -245 -20 -20 -62 -49 -94 -64 -53
-26 -66 -28 -173 -29 -141 0 -208 15 -290 63 -56 33 -210 174 -210 193 0 4 57
8 128 8 156 2 390 17 457 30 80 15 207 59 250 86 22 13 41 25 43 25 1 0 0 -30
-4 -67z m-2081 36 c144 -74 289 -99 587 -102 188 -2 230 -5 230 -16 0 -7 -37
-50 -82 -95 -108 -106 -178 -142 -306 -156 -179 -20 -322 19 -386 103 -53 71
-96 188 -96 262 0 30 0 30 53 4z"/>
</g>
</svg>
